<svg width="40" height="34" viewBox="0 0 40 34" fill="none" xmlns="http://www.w3.org/2000/svg">
<path d="M14.2463 14.684L14.2403 14.689L11.4668 17L14.2353 19.3068C14.5746 19.5865 14.8582 19.9276 15.0711 20.3121L20.7102 4.8046C20.7103 4.80441 20.7103 4.80421 20.7104 4.80402C20.8674 4.37214 21.1079 3.97541 21.4181 3.63646C21.7285 3.29735 22.1027 3.02272 22.5193 2.82825C22.9359 2.63378 23.3867 2.52328 23.8459 2.50306C24.305 2.48286 24.7635 2.55325 25.1954 2.7102L14.2463 14.684ZM14.2463 14.684L14.2523 14.6789C14.957 14.0823 15.3975 13.2313 15.4776 12.3114C15.5577 11.3914 15.271 10.4771 14.68 9.76761C14.089 9.05809 13.2416 8.61089 12.3223 8.52342C11.4031 8.43594 10.4865 8.71529 9.77227 9.3006L9.76592 9.30581L9.75962 9.31106L3.75988 14.3108C3.7598 14.3109 3.75971 14.311 3.75962 14.3111C3.36544 14.6395 3.04829 15.0506 2.83063 15.5152C2.61291 15.9799 2.50006 16.4868 2.50006 17C2.50006 17.5132 2.61291 18.0201 2.83063 18.4848C3.04829 18.9494 3.36544 19.3605 3.75962 19.6889C3.75971 19.689 3.7598 19.6891 3.75988 19.6892L9.75478 24.6849C10.1058 24.9805 10.5114 25.2041 10.9488 25.3432C11.389 25.4831 11.8527 25.5346 12.3129 25.4945C12.6403 25.466 12.9613 25.3915 13.2668 25.2739L12.7104 26.804L12.7099 26.8054C12.3935 27.6776 12.4363 28.6398 12.829 29.4804C13.221 30.3194 13.9295 30.9689 14.7992 31.2866M14.2463 14.684L14.7992 31.2866M14.7992 31.2866C15.1841 31.4281 15.591 31.5004 16.0011 31.5M14.7992 31.2866L27.2896 7.19604L26.7332 8.72607C27.0386 8.60846 27.3597 8.53404 27.6871 8.50553C28.1473 8.46545 28.6109 8.51687 29.0512 8.65684C29.4885 8.79586 29.8941 9.01947 30.245 9.31493L36.2401 14.3108C36.2402 14.3109 36.2403 14.311 36.2404 14.3111C36.6345 14.6395 36.9517 15.0506 37.1693 15.5152C37.3871 15.9799 37.4999 16.4868 37.4999 17C37.4999 17.5132 37.3871 18.0201 37.1693 18.4848C36.9517 18.9494 36.6345 19.3605 36.2404 19.6889C36.2403 19.689 36.2402 19.6891 36.2401 19.6892L30.2451 24.685C29.8942 24.9805 29.4885 25.2041 29.0512 25.3432C28.6109 25.4831 28.1473 25.5346 27.6871 25.4945C27.2269 25.4544 26.7791 25.3236 26.3697 25.1096C25.9602 24.8956 25.5972 24.6027 25.3015 24.2477C25.0058 23.8928 24.7834 23.4828 24.6469 23.0414C24.5105 22.6 24.4628 22.136 24.5065 21.6761C24.5503 21.2162 24.6846 20.7695 24.9019 20.3618C25.1176 19.957 25.4108 19.5985 25.7647 19.3068L28.5332 17L25.7647 14.6932C25.4253 14.4135 25.1418 14.0724 24.9289 13.6879L19.2896 29.1958C19.2896 29.1959 19.2896 29.1959 19.2896 29.196C19.044 29.8713 18.5966 30.4546 18.0081 30.8668C17.4199 31.2788 16.7192 31.4998 16.0011 31.5M16.0011 31.5C16.0006 31.5 16.0001 31.5 15.9996 31.5L16 29.5L16.0027 31.5C16.0022 31.5 16.0017 31.5 16.0011 31.5ZM27.4969 5.84595C27.5171 6.30521 27.4467 6.76396 27.2896 7.19599L27.4969 5.84595ZM27.4969 5.84595C27.4767 5.38666 27.3662 4.93586 27.1717 4.51929M27.4969 5.84595L27.1717 4.51929M27.1717 4.51929C26.9773 4.10274 26.7026 3.72857 26.3635 3.41815M27.1717 4.51929L26.3635 3.41815M26.3635 3.41815C26.0246 3.1079 25.6279 2.86741 25.196 2.71043L26.3635 3.41815Z" fill="#B42318" stroke="#16181D" stroke-width="4"/>
</svg>
