<svg width="25" height="24" viewBox="0 0 25 24" fill="none" xmlns="http://www.w3.org/2000/svg">
<path d="M20.4457 6.57077L13.3344 2.44158C12.8859 2.18614 12.302 2.18614 11.8499 2.44158L4.66267 6.57077C4.19984 6.83702 3.87231 7.33743 3.87231 7.87267V16.1201C3.87231 16.6553 4.20839 17.1559 4.67122 17.4236L6.57012 18.5021C7.47772 18.9492 7.79847 18.9492 8.21147 18.9492C9.55529 18.9492 10.3229 18.1365 10.3229 16.7192V8.57691C10.3229 8.46193 10.2631 8.29083 10.1502 8.29083H9.24341C9.12858 8.29083 8.87153 8.46193 8.87153 8.57675V16.719C8.87153 17.3473 8.30323 17.9725 7.24114 17.4415L5.27903 16.3105C5.21065 16.2734 5.16243 16.1988 5.16243 16.1201V7.87267C5.16243 7.79494 5.25194 7.71688 5.3208 7.67705L12.4848 3.55496C12.5518 3.51706 12.6501 3.51706 12.7169 3.55496L19.7935 7.67608C19.8613 7.71688 19.8374 7.79252 19.8374 7.87267V16.1201C19.8374 16.1988 19.8669 16.2754 19.8 16.3133L12.6904 20.4378C12.6295 20.4744 12.5539 20.4744 12.4871 20.4378L10.6637 19.3494C10.6087 19.3175 10.5434 19.306 10.4906 19.3355C9.98329 19.6231 9.88976 19.6613 9.41386 19.8263C9.29678 19.8671 9.12407 19.9379 9.47998 20.1374L11.8664 21.5491C12.0942 21.6807 12.3527 21.75 12.6158 21.75C12.8806 21.75 13.1399 21.6813 13.3684 21.5491L20.4455 17.4236C20.9083 17.1539 21.1277 16.6553 21.1277 16.1201V7.87267C21.1277 7.33743 20.9083 6.83831 20.4457 6.57077ZM14.8238 14.8132C12.9328 14.8132 12.5163 14.2915 12.3774 13.3512C12.3613 13.2499 12.2753 13.1288 12.1723 13.1288H11.2481C11.1338 13.1288 11.0418 13.2675 11.0418 13.3813C11.0418 14.5853 11.6964 16.0441 14.824 16.0441C17.088 16.0441 18.386 15.1644 18.386 13.6076C18.386 12.0639 17.3431 11.6588 15.1475 11.3682C12.9281 11.0749 12.7027 10.9267 12.7027 10.4068C12.7027 9.97814 12.8936 9.40646 14.5369 9.40646C16.0052 9.40646 16.5465 9.72157 16.7692 10.7113C16.7882 10.8043 16.8732 10.8711 16.9691 10.8711H17.897C17.9541 10.8711 18.0086 10.848 18.0486 10.8072C18.0873 10.7633 18.1078 10.7083 18.1027 10.6493C17.959 8.94508 16.8267 8.15085 14.5368 8.15085C12.4998 8.15085 11.2847 9.01103 11.2847 10.4529C11.2847 12.0169 12.4937 12.449 14.449 12.6424C16.7882 12.8717 16.9701 13.2136 16.9701 13.6737C16.9701 14.4728 16.3286 14.8132 14.8238 14.8132Z" fill="#82BC4F"/>
</svg>
