<svg width="901" height="1882" viewBox="0 0 901 2003" fill="none" xmlns="http://www.w3.org/2000/svg">
<g id="papel-amarelo">
<rect id="Rectangle 1" width="900" height="2000" fill="#FDF3B6"/>
<line id="Line 1" y1="-0.5" x2="900.002" y2="-0.5" transform="matrix(0.999997 0.00258586 -0.0063253 0.99998 0 88.6132)" stroke="#0F0CC9" stroke-opacity="0.35"/>
<line id="Line 2" y1="-0.5" x2="900.002" y2="-0.5" transform="matrix(0.999997 0.00258586 -0.0063253 0.99998 0 117.687)" stroke="#0F0CC9" stroke-opacity="0.35"/>
<line id="Line 3" y1="-0.5" x2="900.002" y2="-0.5" transform="matrix(0.999997 0.00258586 -0.0063253 0.99998 0 146.76)" stroke="#0F0CC9" stroke-opacity="0.35"/>
<line id="Line 4" y1="-0.5" x2="900.002" y2="-0.5" transform="matrix(0.999997 0.00258586 -0.0063253 0.99998 0 175.833)" stroke="#0F0CC9" stroke-opacity="0.35"/>
<line id="Line 5" y1="-0.5" x2="900.002" y2="-0.5" transform="matrix(0.999997 0.00258586 -0.0063253 0.99998 0 204.907)" stroke="#0F0CC9" stroke-opacity="0.35"/>
<line id="Line 6" y1="-0.5" x2="900.002" y2="-0.5" transform="matrix(0.999997 0.00258586 -0.0063253 0.99998 0 233.98)" stroke="#0F0CC9" stroke-opacity="0.35"/>
<line id="Line 7" y1="-0.5" x2="900.002" y2="-0.5" transform="matrix(0.999997 0.00258586 -0.0063253 0.99998 0 263.053)" stroke="#0F0CC9" stroke-opacity="0.35"/>
<line id="Line 8" y1="-0.5" x2="900.002" y2="-0.5" transform="matrix(0.999997 0.00258586 -0.0063253 0.99998 0 292.127)" stroke="#0F0CC9" stroke-opacity="0.35"/>
<line id="Line 9" y1="-0.5" x2="900.002" y2="-0.5" transform="matrix(0.999997 0.00258586 -0.0063253 0.99998 0 321.2)" stroke="#0F0CC9" stroke-opacity="0.35"/>
<line id="Line 10" y1="-0.5" x2="900.002" y2="-0.5" transform="matrix(0.999997 0.00258586 -0.0063253 0.99998 0 350.274)" stroke="#0F0CC9" stroke-opacity="0.35"/>
<line id="Line 11" y1="-0.5" x2="900.002" y2="-0.5" transform="matrix(0.999997 0.00258586 -0.0063253 0.99998 0 379.347)" stroke="#0F0CC9" stroke-opacity="0.35"/>
<line id="Line 12" y1="-0.5" x2="900.002" y2="-0.5" transform="matrix(0.999997 0.00258586 -0.0063253 0.99998 0 408.42)" stroke="#0F0CC9" stroke-opacity="0.35"/>
<line id="Line 13" y1="-0.5" x2="900.002" y2="-0.5" transform="matrix(0.999997 0.00258586 -0.0063253 0.99998 0 437.494)" stroke="#0F0CC9" stroke-opacity="0.35"/>
<line id="Line 14" y1="-0.5" x2="900.002" y2="-0.5" transform="matrix(0.999997 0.00258586 -0.0063253 0.99998 0 466.567)" stroke="#0F0CC9" stroke-opacity="0.35"/>
<line id="Line 15" y1="-0.5" x2="900.002" y2="-0.5" transform="matrix(0.999997 0.00258586 -0.0063253 0.99998 0 495.641)" stroke="#0F0CC9" stroke-opacity="0.35"/>
<line id="Line 16" y1="-0.5" x2="900.002" y2="-0.5" transform="matrix(0.999997 0.00258586 -0.0063253 0.99998 0 524.714)" stroke="#0F0CC9" stroke-opacity="0.35"/>
<line id="Line 17" y1="-0.5" x2="900.002" y2="-0.5" transform="matrix(0.999997 0.00258586 -0.0063253 0.99998 0 553.787)" stroke="#0F0CC9" stroke-opacity="0.35"/>
<line id="Line 18" y1="-0.5" x2="900.002" y2="-0.5" transform="matrix(0.999997 0.00258586 -0.0063253 0.99998 0 582.861)" stroke="#0F0CC9" stroke-opacity="0.35"/>
<line id="Line 19" y1="-0.5" x2="900.002" y2="-0.5" transform="matrix(0.999997 0.00258586 -0.0063253 0.99998 0 611.934)" stroke="#0F0CC9" stroke-opacity="0.35"/>
<line id="Line 20" y1="-0.5" x2="900.002" y2="-0.5" transform="matrix(0.999997 0.00258586 -0.0063253 0.99998 0 641.007)" stroke="#0F0CC9" stroke-opacity="0.35"/>
<line id="Line 21" y1="-0.5" x2="900.002" y2="-0.5" transform="matrix(0.999997 0.00258586 -0.0063253 0.99998 0 670.081)" stroke="#0F0CC9" stroke-opacity="0.35"/>
<line id="Line 22" y1="-0.5" x2="900.002" y2="-0.5" transform="matrix(0.999997 0.00258586 -0.0063253 0.99998 0 699.154)" stroke="#0F0CC9" stroke-opacity="0.35"/>
<line id="Line 23" y1="-0.5" x2="900.002" y2="-0.5" transform="matrix(0.999997 0.00258586 -0.0063253 0.99998 0 728.228)" stroke="#0F0CC9" stroke-opacity="0.35"/>
<line id="Line 24" y1="-0.5" x2="900.002" y2="-0.5" transform="matrix(0.999997 0.00258586 -0.0063253 0.99998 0 757.301)" stroke="#0F0CC9" stroke-opacity="0.35"/>
<line id="Line 25" y1="-0.5" x2="900.002" y2="-0.5" transform="matrix(0.999997 0.00258586 -0.0063253 0.99998 0 786.374)" stroke="#0F0CC9" stroke-opacity="0.35"/>
<line id="Line 26" y1="-0.5" x2="900.002" y2="-0.5" transform="matrix(0.999997 0.00258586 -0.0063253 0.99998 0 815.448)" stroke="#0F0CC9" stroke-opacity="0.35"/>
<line id="Line 27" y1="-0.5" x2="900.002" y2="-0.5" transform="matrix(0.999997 0.00258586 -0.0063253 0.99998 0 844.521)" stroke="#0F0CC9" stroke-opacity="0.35"/>
<line id="Line 28" y1="-0.5" x2="900.002" y2="-0.5" transform="matrix(0.999997 0.00258586 -0.0063253 0.99998 0 873.595)" stroke="#0F0CC9" stroke-opacity="0.35"/>
<line id="Line 29" y1="-0.5" x2="900.002" y2="-0.5" transform="matrix(0.999997 0.00258586 -0.0063253 0.99998 0 902.668)" stroke="#0F0CC9" stroke-opacity="0.35"/>
<line id="Line 30" y1="-0.5" x2="900.002" y2="-0.5" transform="matrix(0.999997 0.00258586 -0.0063253 0.99998 0 932)" stroke="#0F0CC9" stroke-opacity="0.35"/>
<line id="Line 32" y1="-0.5" x2="900.002" y2="-0.5" transform="matrix(0.999997 0.00258586 -0.0063253 0.99998 0 962)" stroke="#0F0CC9" stroke-opacity="0.35"/>
<line id="Line 33" y1="-0.5" x2="900.002" y2="-0.5" transform="matrix(0.999997 0.00258586 -0.0063253 0.99998 0 991.073)" stroke="#0F0CC9" stroke-opacity="0.35"/>
<line id="Line 34" y1="-0.5" x2="900.002" y2="-0.5" transform="matrix(0.999997 0.00258586 -0.0063253 0.99998 0 1020.15)" stroke="#0F0CC9" stroke-opacity="0.35"/>
<line id="Line 35" y1="-0.5" x2="900.002" y2="-0.5" transform="matrix(0.999997 0.00258586 -0.0063253 0.99998 0 1049.22)" stroke="#0F0CC9" stroke-opacity="0.35"/>
<line id="Line 36" y1="-0.5" x2="900.002" y2="-0.5" transform="matrix(0.999997 0.00258586 -0.0063253 0.99998 0 1078.29)" stroke="#0F0CC9" stroke-opacity="0.35"/>
<line id="Line 37" y1="-0.5" x2="900.002" y2="-0.5" transform="matrix(0.999997 0.00258586 -0.0063253 0.99998 0 1107.37)" stroke="#0F0CC9" stroke-opacity="0.35"/>
<line id="Line 38" y1="-0.5" x2="900.002" y2="-0.5" transform="matrix(0.999997 0.00258586 -0.0063253 0.99998 0 1136.44)" stroke="#0F0CC9" stroke-opacity="0.35"/>
<line id="Line 39" y1="-0.5" x2="900.002" y2="-0.5" transform="matrix(0.999997 0.00258586 -0.0063253 0.99998 0 1165.51)" stroke="#0F0CC9" stroke-opacity="0.35"/>
<line id="Line 40" y1="-0.5" x2="900.002" y2="-0.5" transform="matrix(0.999997 0.00258586 -0.0063253 0.99998 0 1194.59)" stroke="#0F0CC9" stroke-opacity="0.35"/>
<line id="Line 41" y1="-0.5" x2="900.002" y2="-0.5" transform="matrix(0.999997 0.00258586 -0.0063253 0.99998 0 1223.66)" stroke="#0F0CC9" stroke-opacity="0.35"/>
<line id="Line 42" y1="-0.5" x2="900.002" y2="-0.5" transform="matrix(0.999997 0.00258586 -0.0063253 0.99998 0 1252.73)" stroke="#0F0CC9" stroke-opacity="0.35"/>
<line id="Line 43" y1="-0.5" x2="900.002" y2="-0.5" transform="matrix(0.999997 0.00258586 -0.0063253 0.99998 0 1281.81)" stroke="#0F0CC9" stroke-opacity="0.35"/>
<line id="Line 44" y1="-0.5" x2="900.002" y2="-0.5" transform="matrix(0.999997 0.00258586 -0.0063253 0.99998 0 1310.88)" stroke="#0F0CC9" stroke-opacity="0.35"/>
<line id="Line 45" y1="-0.5" x2="900.002" y2="-0.5" transform="matrix(0.999997 0.00258586 -0.0063253 0.99998 0 1339.95)" stroke="#0F0CC9" stroke-opacity="0.35"/>
<line id="Line 46" y1="-0.5" x2="900.002" y2="-0.5" transform="matrix(0.999997 0.00258586 -0.0063253 0.99998 0 1369.03)" stroke="#0F0CC9" stroke-opacity="0.35"/>
<line id="Line 47" y1="-0.5" x2="900.002" y2="-0.5" transform="matrix(0.999997 0.00258586 -0.0063253 0.99998 0 1398.1)" stroke="#0F0CC9" stroke-opacity="0.35"/>
<line id="Line 48" y1="-0.5" x2="900.002" y2="-0.5" transform="matrix(0.999997 0.00258586 -0.0063253 0.99998 0 1427.17)" stroke="#0F0CC9" stroke-opacity="0.35"/>
<line id="Line 49" y1="-0.5" x2="900.002" y2="-0.5" transform="matrix(0.999997 0.00258586 -0.0063253 0.99998 0 1456.25)" stroke="#0F0CC9" stroke-opacity="0.35"/>
<line id="Line 50" y1="-0.5" x2="900.002" y2="-0.5" transform="matrix(0.999997 0.00258586 -0.0063253 0.99998 0 1485.32)" stroke="#0F0CC9" stroke-opacity="0.35"/>
<line id="Line 51" y1="-0.5" x2="900.002" y2="-0.5" transform="matrix(0.999997 0.00258586 -0.0063253 0.99998 0 1514.39)" stroke="#0F0CC9" stroke-opacity="0.35"/>
<line id="Line 52" y1="-0.5" x2="900.002" y2="-0.5" transform="matrix(0.999997 0.00258586 -0.0063253 0.99998 0 1543.47)" stroke="#0F0CC9" stroke-opacity="0.35"/>
<line id="Line 53" y1="-0.5" x2="900.002" y2="-0.5" transform="matrix(0.999997 0.00258586 -0.0063253 0.99998 0 1572.54)" stroke="#0F0CC9" stroke-opacity="0.35"/>
<line id="Line 54" y1="-0.5" x2="900.002" y2="-0.5" transform="matrix(0.999997 0.00258586 -0.0063253 0.99998 0 1601.61)" stroke="#0F0CC9" stroke-opacity="0.35"/>
<line id="Line 55" y1="-0.5" x2="900.002" y2="-0.5" transform="matrix(0.999997 0.00258586 -0.0063253 0.99998 0 1630.69)" stroke="#0F0CC9" stroke-opacity="0.35"/>
<line id="Line 56" y1="-0.5" x2="900.002" y2="-0.5" transform="matrix(0.999997 0.00258586 -0.0063253 0.99998 0 1659.76)" stroke="#0F0CC9" stroke-opacity="0.35"/>
<line id="Line 57" y1="-0.5" x2="900.002" y2="-0.5" transform="matrix(0.999997 0.00258586 -0.0063253 0.99998 0 1688.83)" stroke="#0F0CC9" stroke-opacity="0.35"/>
<line id="Line 58" y1="-0.5" x2="900.002" y2="-0.5" transform="matrix(0.999997 0.00258586 -0.0063253 0.99998 0 1717.91)" stroke="#0F0CC9" stroke-opacity="0.35"/>
<line id="Line 59" y1="-0.5" x2="900.002" y2="-0.5" transform="matrix(0.999997 0.00258586 -0.0063253 0.99998 0 1746.98)" stroke="#0F0CC9" stroke-opacity="0.35"/>
<line id="Line 60" y1="-0.5" x2="900.002" y2="-0.5" transform="matrix(0.999997 0.00258586 -0.0063253 0.99998 0 1776.05)" stroke="#0F0CC9" stroke-opacity="0.35"/>
<line id="Line 61" y1="-0.5" x2="900.002" y2="-0.5" transform="matrix(0.999997 0.00258586 -0.0063253 0.99998 0 1805)" stroke="#0F0CC9" stroke-opacity="0.35"/>
<line id="Line 62" y1="-0.5" x2="900.002" y2="-0.5" transform="matrix(0.999997 0.00258586 -0.0063253 0.99998 0 1834)" stroke="#0F0CC9" stroke-opacity="0.35"/>
<line id="Line 63" y1="-0.5" x2="900.002" y2="-0.5" transform="matrix(0.999997 0.00258586 -0.0063253 0.99998 0 1863.07)" stroke="#0F0CC9" stroke-opacity="0.35"/>
<line id="Line 64" y1="-0.5" x2="900.002" y2="-0.5" transform="matrix(0.999997 0.00258586 -0.0063253 0.99998 0 1892.15)" stroke="#0F0CC9" stroke-opacity="0.35"/>
<line id="Line 65" y1="-0.5" x2="900.002" y2="-0.5" transform="matrix(0.999997 0.00258586 -0.0063253 0.99998 0 1921.22)" stroke="#0F0CC9" stroke-opacity="0.35"/>
<line id="Line 66" y1="-0.5" x2="900.002" y2="-0.5" transform="matrix(0.999997 0.00258586 -0.0063253 0.99998 0 1950.29)" stroke="#0F0CC9" stroke-opacity="0.35"/>
<line id="Line 67" y1="-0.5" x2="900.002" y2="-0.5" transform="matrix(0.999997 0.00258586 -0.0063253 0.99998 0 1979.37)" stroke="#0F0CC9" stroke-opacity="0.35"/>
<line id="Line 31" x1="77.8007" x2="77.8007" y2="2003" stroke="#FF0000" stroke-opacity="0.38"/>
</g>
</svg>
