<svg width="25" height="24" viewBox="0 0 25 24" fill="none" xmlns="http://www.w3.org/2000/svg">
<path d="M13.061 18.9433C12.8877 18.7901 12.7068 18.6363 12.5341 18.4659C12.396 18.5936 12.2666 18.7132 12.1296 18.8322C10.42 20.306 8.65779 20.9196 7.61318 20.3231C6.60265 19.7523 6.2843 18.066 6.68874 15.9445C6.73188 15.7145 6.78369 15.4846 6.84416 15.2546C6.66274 15.2012 6.48999 15.1521 6.31723 15.0944C4.16618 14.3602 2.75006 13.1678 2.75006 11.9749C2.75006 10.8253 4.07143 9.70926 6.13523 8.99373C6.36634 8.91684 6.61016 8.84048 6.86092 8.77213C6.80314 8.55053 6.75749 8.33747 6.71416 8.13136C6.28199 5.97783 6.58416 4.25736 7.60335 3.678C8.6653 3.06446 10.4275 3.72072 12.1972 5.26231C12.3006 5.35575 12.4046 5.45827 12.5167 5.56026C12.6808 5.40701 12.8362 5.25376 13.0003 5.1176C14.6759 3.67586 16.3422 3.073 17.3614 3.65237C18.4233 4.24829 18.7347 6.08837 18.2598 8.3631C18.2338 8.50835 18.202 8.64451 18.165 8.79029C18.3811 8.85009 18.5966 8.91791 18.7954 8.98625C20.9025 9.70178 22.2672 10.8178 22.2499 11.9931C22.2499 13.194 20.7904 14.3783 18.5522 15.111C18.4314 15.1451 18.3106 15.1879 18.1893 15.2215C18.2413 15.3918 18.2754 15.5622 18.3101 15.7325C18.759 17.9389 18.4135 19.7448 17.3689 20.3413C17.0945 20.4939 16.779 20.5717 16.4589 20.5655C15.5015 20.5639 14.2859 19.9814 13.061 18.9433ZM14.7539 15.8169C14.2578 16.5301 13.7126 17.213 13.1217 17.8615C13.2858 18.0217 13.4498 18.1685 13.6139 18.3047C15.0387 19.5141 16.3514 19.9659 16.965 19.6167C17.1524 19.4675 17.3055 19.2851 17.4153 19.0803C17.525 18.8755 17.5892 18.6524 17.604 18.4243C17.7287 17.5789 17.6935 16.72 17.5 15.8858C17.474 15.7325 17.4422 15.5793 17.3966 15.4175C16.5265 15.6057 15.6435 15.7391 14.7539 15.8169ZM7.51669 16.0897C7.16309 17.9053 7.42193 19.2584 8.03668 19.6081C8.25448 19.6922 8.48963 19.7311 8.72547 19.7218C8.9613 19.7126 9.19206 19.6555 9.40138 19.5547C10.2157 19.2384 10.9573 18.7815 11.5865 18.2086C11.7159 18.106 11.8367 17.987 11.9667 17.8679C11.3627 17.2192 10.8031 16.5363 10.2912 15.8233C9.40487 15.7549 8.52475 15.63 7.65709 15.4495C7.60335 15.6722 7.56002 15.8847 7.51669 16.0897ZM12.5433 17.2821C12.9235 16.8645 13.3031 16.4048 13.6833 15.8938C13.3031 15.9109 12.9062 15.9194 12.5086 15.9194C12.1111 15.9194 11.7402 15.9109 11.3687 15.8938C11.757 16.3957 12.1464 16.8645 12.5433 17.2821ZM10.7291 8.9681C10.4009 9.4364 10.0814 9.92926 9.77925 10.4504C9.47707 10.9614 9.20147 11.481 8.95014 11.9989C9.20956 12.51 9.48574 13.0295 9.78791 13.5582C10.0901 14.0692 10.4096 14.5727 10.7378 15.0485C11.3075 15.0827 11.9037 15.1019 12.5081 15.1019C13.1124 15.1019 13.7168 15.0848 14.2957 15.0426C14.6065 14.5743 14.926 14.0713 15.2288 13.5518C15.5316 13.0322 15.8158 12.5041 16.0666 11.9931C15.8158 11.4906 15.531 10.971 15.2288 10.451C14.9266 9.93086 14.6071 9.4364 14.2876 8.96863C13.7098 8.92592 13.113 8.90029 12.5086 8.90029C11.9043 8.90029 11.308 8.92538 10.7291 8.9681ZM7.87953 14.6667C8.47206 14.7918 9.07179 14.8857 9.67583 14.9481C9.46841 14.6245 9.26156 14.3004 9.06281 13.9597C8.87272 13.6276 8.68263 13.2954 8.50988 12.9633C8.2597 13.5421 8.05228 14.114 7.87953 14.6667ZM15.9539 13.9512C15.7552 14.2918 15.5564 14.6154 15.3582 14.931C15.9713 14.86 16.5797 14.7577 17.1805 14.6245C16.9929 14.0495 16.7738 13.4836 16.5242 12.9291C16.3427 13.2698 16.1527 13.6105 15.9539 13.9512ZM6.40274 9.77707C4.64111 10.3906 3.57917 11.284 3.57917 11.9835C3.61275 12.2085 3.69409 12.4252 3.81853 12.6211C3.94296 12.817 4.10803 12.9883 4.30427 13.1251C4.97829 13.6489 5.75122 14.0532 6.58416 14.3175C6.73958 14.3709 6.90367 14.4115 7.06776 14.4627C7.33303 13.6248 7.65313 12.8026 8.02628 12.0006C7.65241 11.2123 7.33511 10.4021 7.07642 9.57523C6.84339 9.6329 6.61883 9.70018 6.40274 9.77707ZM16.9991 11.9835C17.3823 12.7753 17.7104 13.589 17.9813 14.4195C18.094 14.3853 18.2061 14.3511 18.3095 14.3169C20.2352 13.6868 21.4295 12.7241 21.4358 11.9744C21.4358 11.2759 20.3305 10.3725 18.5256 9.75945C18.3442 9.70018 18.146 9.64038 17.9478 9.58057C17.6862 10.3991 17.3693 11.2016 16.9991 11.9835ZM15.9458 10.0243C16.1446 10.365 16.3347 10.6976 16.5068 11.0298C16.7468 10.487 16.9543 9.9324 17.1285 9.36858C16.5419 9.23686 15.9481 9.13454 15.3496 9.06208C15.557 9.37659 15.7557 9.69217 15.9458 10.0243ZM7.8882 9.36164C8.06153 9.90683 8.26837 10.4606 8.50988 11.0308C8.68321 10.6987 8.87272 10.3666 9.06281 10.0344C9.2529 9.70232 9.45107 9.37873 9.65849 9.06315C9.03681 9.13844 8.44979 9.24043 7.8882 9.36164ZM13.5446 5.74128C13.3978 5.8689 13.2511 6.00507 13.1038 6.14176C13.7034 6.78226 14.2546 7.46024 14.7533 8.17087C15.6321 8.24928 16.5037 8.38597 17.3614 8.5799C17.396 8.45228 17.4191 8.32412 17.448 8.1965C17.8525 6.23735 17.6034 4.73794 16.9471 4.36362C16.803 4.28889 16.6396 4.25196 16.4745 4.25683C15.769 4.25362 14.6863 4.76144 13.5446 5.73968V5.74128ZM8.01762 4.38498C7.4046 4.7342 7.16251 6.13108 7.52535 7.97117C7.56869 8.16714 7.61202 8.36257 7.66344 8.56708C8.52223 8.38029 9.39351 8.2465 10.2715 8.1666C10.772 7.45508 11.3261 6.77703 11.9297 6.13749C11.835 6.04351 11.731 5.95861 11.6362 5.87317C10.4344 4.82284 9.2789 4.26858 8.52432 4.26858C8.34699 4.26299 8.17148 4.3033 8.01762 4.38498ZM13.6653 8.09879C13.3092 7.62254 12.925 7.16477 12.5144 6.72754C12.1262 7.14457 11.7373 7.60486 11.3589 8.09879C11.7391 8.0817 12.1186 8.07316 12.5075 8.07316C12.8963 8.07316 13.2852 8.0801 13.6653 8.09879ZM10.7811 12.0176C10.773 11.7987 10.8117 11.5804 10.8951 11.3754C10.9784 11.1703 11.1047 10.9824 11.2668 10.8226C11.4288 10.6627 11.6234 10.5339 11.8394 10.4437C12.0554 10.3534 12.2885 10.3035 12.5254 10.2966C13.0034 10.3117 13.4555 10.5013 13.7825 10.8239C14.1094 11.1465 14.2847 11.5758 14.2697 12.0176C14.2851 12.4598 14.11 12.8896 13.7829 13.2126C13.4557 13.5356 13.0033 13.7253 12.5248 13.7402C12.2878 13.7334 12.0545 13.6834 11.8385 13.593C11.6224 13.5027 11.4278 13.3738 11.2658 13.2137C11.1037 13.0537 10.9775 12.8656 10.8944 12.6604C10.8112 12.4551 10.7727 12.2367 10.7811 12.0176Z" fill="#3996DB"/>
</svg>
