<svg width="25" height="24" viewBox="0 0 25 24" fill="none" xmlns="http://www.w3.org/2000/svg">
<g clip-path="url(#clip0_22_753)">
<path fill-rule="evenodd" clip-rule="evenodd" d="M20.3125 9.0332C20.4727 8.67383 20.8926 8.50977 21.252 8.66992C21.6113 8.83008 21.7734 9.25195 21.6152 9.61133C21.4551 9.97266 21.0352 10.1348 20.6758 9.97461C20.3145 9.81445 20.1523 9.39453 20.3125 9.0332ZM11.9707 2.32031C12.2559 2.04883 12.707 2.05859 12.9785 2.34375C13.25 2.62891 13.2402 3.08008 12.9551 3.35352C12.6699 3.625 12.2207 3.61523 11.9473 3.33008C11.6758 3.04297 11.6855 2.5918 11.9707 2.32031ZM21.2734 11.9238C21.2734 12.1426 21.2656 12.3594 21.25 12.5762H20.3496C20.2598 12.5762 20.2227 12.6348 20.2227 12.7227V13.1367C20.2227 14.1094 19.6738 14.3223 19.1934 14.375C18.7363 14.4258 18.2285 14.1836 18.166 13.9023C17.8965 12.3828 17.4453 12.0586 16.7344 11.498C17.6172 10.9375 18.5352 10.1113 18.5352 9.00586C18.5352 7.81055 17.7168 7.05859 17.1582 6.68945C16.375 6.17383 15.5078 6.07031 15.2734 6.07031H5.96289C7.22461 4.66211 8.93555 3.66406 10.8711 3.30078L11.9688 4.45117C12.2168 4.71094 12.627 4.7207 12.8867 4.47266L14.1152 3.29883C16.6875 3.77734 18.8672 5.37891 20.1211 7.57617L19.2812 9.47461C19.1367 9.80273 19.2852 10.1875 19.6113 10.334L21.2305 11.0527C21.2598 11.3379 21.2734 11.6289 21.2734 11.9238ZM10.5117 10.4355V8.7832H13.4727C13.625 8.7832 14.5527 8.96094 14.5527 9.65234C14.5527 10.2285 13.8418 10.4336 13.2578 10.4336L10.5117 10.4355ZM3.77539 10.9805L5.31055 10.2988C5.63867 10.1523 5.78711 9.76953 5.64062 9.43945L5.32422 8.72461H6.56836V14.3301H4.06055C3.84375 13.5645 3.72656 12.7578 3.72656 11.9238C3.72461 11.6035 3.74219 11.2891 3.77539 10.9805ZM4.61133 8.99805C4.77148 9.35742 4.60938 9.78125 4.24805 9.93945C3.88867 10.0996 3.4668 9.9375 3.30859 9.57617C3.14844 9.21484 3.31055 8.79492 3.67188 8.63477C4.03125 8.47461 4.45312 8.63867 4.61133 8.99805ZM7.33203 20.0293C6.94727 20.1133 6.56836 19.8672 6.48633 19.4824C6.4043 19.0957 6.64844 18.7168 7.0332 18.6348C7.41797 18.5527 7.79688 18.7969 7.87891 19.1836C7.96094 19.5664 7.7168 19.9473 7.33203 20.0293ZM17.25 17.748C16.8984 17.6719 16.5527 17.8965 16.4785 18.248L16.1211 19.918C15.0176 20.4199 13.791 20.6973 12.5 20.6973C11.1797 20.6973 9.92773 20.4043 8.80273 19.8828L8.44531 18.2129C8.36914 17.8613 8.02539 17.6387 7.67383 17.7129L6.19922 18.0293C5.92578 17.748 5.67188 17.4473 5.4375 17.1309H12.6094C12.6914 17.1309 12.7441 17.1152 12.7441 17.043V14.5059C12.7441 14.4316 12.6895 14.418 12.6094 14.418H10.5117V12.8105H12.7793C12.9863 12.8105 13.8867 12.8691 14.1738 14.0195C14.2637 14.373 14.4609 15.5234 14.5977 15.8926C14.7324 16.3066 15.2812 17.1309 15.8672 17.1309H19.4395C19.4805 17.1309 19.5234 17.127 19.5684 17.1172C19.3203 17.4531 19.0488 17.7734 18.7559 18.0703L17.25 17.748ZM17.5918 20.0645C17.207 19.9805 16.9629 19.6016 17.0449 19.2168C17.127 18.832 17.5059 18.5859 17.8906 18.6699C18.2754 18.752 18.5215 19.1328 18.4375 19.5176C18.3555 19.9004 17.9766 20.1465 17.5918 20.0645ZM24.3359 11.7051L23.3281 11.082C23.3203 10.9844 23.3105 10.8867 23.2988 10.7891L24.1641 9.98242C24.252 9.90039 24.291 9.7793 24.2676 9.66211C24.2441 9.54492 24.1621 9.44727 24.0488 9.4043L22.9414 8.99023C22.9141 8.89453 22.8848 8.79883 22.8555 8.70508L23.5449 7.74609C23.6152 7.64844 23.6289 7.52148 23.584 7.41016C23.5391 7.29883 23.4375 7.2207 23.3203 7.20117L22.1523 7.01172C22.1074 6.92383 22.0605 6.83594 22.0117 6.75L22.502 5.67383C22.5527 5.56445 22.541 5.4375 22.4746 5.33789C22.4082 5.23828 22.2949 5.17969 22.1738 5.18359L20.9883 5.22461C20.9277 5.14844 20.8652 5.07227 20.8008 4.99805L21.0723 3.84375C21.0996 3.72656 21.0645 3.60352 20.9805 3.51953C20.8965 3.43555 20.7734 3.40039 20.6562 3.42773L19.502 3.69922C19.4277 3.63672 19.3516 3.57422 19.2754 3.51172L19.3164 2.32617C19.3203 2.20703 19.2617 2.0918 19.1621 2.02539C19.0625 1.95898 18.9355 1.94922 18.8262 1.99805L17.75 2.48828C17.6641 2.44141 17.5762 2.39258 17.4883 2.34766L17.2988 1.17969C17.2793 1.06055 17.2012 0.960938 17.0898 0.916016C16.9785 0.869141 16.8516 0.884766 16.7539 0.955078L15.7949 1.64648C15.7012 1.61719 15.6055 1.58789 15.5098 1.56055L15.0977 0.449219C15.0566 0.335938 14.959 0.253906 14.8398 0.230469C14.7227 0.207031 14.6016 0.246094 14.5195 0.333984L13.7109 1.20117C13.6133 1.18945 13.5156 1.17969 13.418 1.17188L12.7949 0.164062C12.7324 0.0625 12.6211 0 12.5 0C12.3789 0 12.2676 0.0625 12.2051 0.164062L11.582 1.17188C11.4844 1.17969 11.3867 1.18945 11.2891 1.20117L10.4805 0.333984C10.3984 0.246094 10.2773 0.207031 10.1602 0.230469C10.043 0.253906 9.94531 0.335938 9.90234 0.449219L9.48828 1.55664C9.39258 1.58398 9.29688 1.61328 9.20312 1.64258L8.24414 0.951172C8.14648 0.880859 8.01953 0.865234 7.9082 0.912109C7.79688 0.957031 7.71875 1.05859 7.69922 1.17578L7.50977 2.34375C7.42188 2.38867 7.33398 2.43555 7.24805 2.48438L6.17188 1.99414C6.0625 1.94336 5.93555 1.95508 5.83594 2.02148C5.73633 2.08789 5.67773 2.20117 5.68164 2.32227L5.72266 3.50781C5.64648 3.56836 5.57031 3.63086 5.49609 3.69531L4.3418 3.42383C4.22461 3.39648 4.10156 3.43164 4.01758 3.51562C3.93164 3.60156 3.89844 3.72266 3.92578 3.83984L4.19727 4.99414C4.13477 5.06836 4.07227 5.14453 4.00977 5.2207L2.82422 5.17969C2.70508 5.17578 2.58984 5.23438 2.52344 5.33398C2.45703 5.43359 2.44727 5.56055 2.49609 5.66992L2.98633 6.74609C2.93945 6.83203 2.89062 6.91992 2.8457 7.00781L1.67773 7.19727C1.55859 7.2168 1.45898 7.29492 1.41406 7.40625C1.36914 7.51758 1.38281 7.64453 1.45312 7.74219L2.14453 8.70117C2.11523 8.79492 2.08594 8.89062 2.05859 8.98633L0.949219 9.40234C0.835938 9.44336 0.753906 9.54102 0.730469 9.66016C0.707031 9.77734 0.746094 9.89844 0.833984 9.98047L1.69922 10.7871C1.68945 10.8848 1.67969 10.9824 1.66992 11.0801L0.662109 11.7031C0.5625 11.7695 0.5 11.8809 0.5 12C0.5 12.1211 0.5625 12.2324 0.664062 12.2949L1.67188 12.918C1.67969 13.0156 1.68945 13.1133 1.70117 13.2109L0.835938 14.0195C0.748047 14.1016 0.708984 14.2227 0.732422 14.3398C0.755859 14.457 0.837891 14.5547 0.951172 14.5977L2.05859 15.0117C2.08594 15.1074 2.11523 15.2031 2.14453 15.2969L1.45312 16.2559C1.38281 16.3535 1.36719 16.4805 1.41406 16.5918C1.46094 16.7031 1.56055 16.7832 1.67969 16.8008L2.8457 16.9922C2.89062 17.0801 2.9375 17.168 2.98633 17.2539L2.49609 18.3301C2.44531 18.4395 2.45703 18.5664 2.52344 18.666C2.58984 18.7656 2.70508 18.8242 2.82422 18.8203L4.00781 18.7793C4.07031 18.8555 4.13086 18.9316 4.19531 19.0059L3.92383 20.1602C3.89648 20.2773 3.93164 20.3984 4.01562 20.4844C4.09961 20.5703 4.22266 20.6035 4.33984 20.5762L5.49414 20.3047C5.56836 20.3691 5.64453 20.4297 5.7207 20.4922L5.67969 21.6777C5.67578 21.7969 5.73438 21.9121 5.83398 21.9785C5.93359 22.0449 6.06055 22.0547 6.16992 22.0059L7.24609 21.5156C7.33203 21.5645 7.41992 21.6113 7.50781 21.6562L7.69727 22.8223C7.7168 22.9414 7.79492 23.041 7.90625 23.0879C8.01758 23.1348 8.14453 23.1191 8.24219 23.0488L9.20117 22.3574C9.29492 22.3867 9.39062 22.416 9.48633 22.4453L9.90039 23.5527C9.94141 23.666 10.0391 23.748 10.1582 23.7715C10.2754 23.7949 10.3965 23.7559 10.4785 23.668L11.2871 22.8027C11.3848 22.8145 11.4824 22.8242 11.5801 22.832L12.2031 23.8398C12.2656 23.9414 12.377 24.0039 12.498 24.0039C12.6191 24.0039 12.7305 23.9414 12.793 23.8398L13.416 22.832C13.5137 22.8242 13.6113 22.8145 13.709 22.8027L14.5176 23.668C14.5996 23.7559 14.7207 23.7949 14.8379 23.7715C14.9551 23.748 15.0527 23.666 15.0957 23.5527L15.5098 22.4453C15.6055 22.418 15.7012 22.3887 15.7949 22.3574L16.7539 23.0488C16.8516 23.1191 16.9785 23.1328 17.0898 23.0879C17.2012 23.043 17.2793 22.9414 17.2988 22.8223L17.4883 21.6562C17.5762 21.6113 17.6641 21.5625 17.75 21.5156L18.8262 22.0059C18.9355 22.0566 19.0625 22.0449 19.1621 21.9785C19.2617 21.9121 19.3203 21.7988 19.3164 21.6777L19.2754 20.4922C19.3516 20.4316 19.4277 20.3691 19.502 20.3047L20.6562 20.5762C20.7734 20.6035 20.8965 20.5703 20.9805 20.4844C21.0664 20.3984 21.0996 20.2773 21.0723 20.1602L20.8008 19.0059C20.8633 18.9316 20.9258 18.8555 20.9883 18.7793L22.1738 18.8203C22.293 18.8242 22.4082 18.7656 22.4746 18.666C22.541 18.5664 22.5527 18.4395 22.502 18.3301L22.0117 17.2539C22.0605 17.166 22.1074 17.0801 22.1523 16.9922L23.3203 16.8027C23.4395 16.7832 23.5391 16.7051 23.584 16.5938C23.6309 16.4824 23.6152 16.3555 23.5449 16.2578L22.8535 15.2988C22.8828 15.2031 22.9121 15.1094 22.9395 15.0137L24.0469 14.5996C24.1602 14.5566 24.2422 14.4609 24.2656 14.3418C24.2891 14.2246 24.25 14.1035 24.1621 14.0215L23.2969 13.2129C23.3066 13.1152 23.3164 13.0176 23.3262 12.9199L24.334 12.2969C24.4355 12.2344 24.498 12.123 24.498 12.002C24.5 11.8809 24.4375 11.7695 24.3359 11.7051Z" fill="#A4A7AE"/>
</g>
<defs>
<clipPath id="clip0_22_753">
<rect width="24" height="24" fill="white" transform="translate(0.5)"/>
</clipPath>
</defs>
</svg>
